<svg xmlns="http://www.w3.org/2000/svg" version="1.1" xmlns:xlink="http://www.w3.org/1999/xlink" xmlns:svgjs="http://svgjs.dev/svgjs" width="2000" height="944" viewBox="0 0 2000 944"><g transform="matrix(1,0,0,1,-1.2121211864065344,-0.8172920967363666)"><svg viewBox="0 0 396 187" data-background-color="#ffffff" preserveAspectRatio="xMidYMid meet" height="944" width="2000" xmlns="http://www.w3.org/2000/svg" xmlns:xlink="http://www.w3.org/1999/xlink"><g id="tight-bounds" transform="matrix(1,0,0,1,0.23999999490848722,0.16190002340010778)"><svg viewBox="0 0 395.52 186.67619995319978" height="186.67619995319978" width="395.52"><g><svg viewBox="0 0 395.52 186.67619995319978" height="186.67619995319978" width="395.52"><g><svg viewBox="0 0 395.52 186.67619995319978" height="186.67619995319978" width="395.52"><g id="textblocktransform"><svg viewBox="0 0 395.52 186.67619995319978" height="186.67619995319978" width="395.52" id="textblock"><g><svg viewBox="0 0 395.52 133.06661797488022" height="133.06661797488022" width="395.52"><g transform="matrix(1,0,0,1,0,0)"><svg width="395.52" viewBox="0.7153846153846154 -38.25 160.2191608347954 53.9099999324" height="133.06661797488022" data-palette-color="#fffefe"><g class="wordmark-text-0" data-fill-palette-color="primary" id="text-0"><path d="M7.4-10.5L7.4-10.5Q7.6-11.75 8.08-13.03 8.55-14.3 9.2-15.38 9.85-16.45 10.65-17.18 11.45-17.9 12.35-18.15L12.35-18.15Q13.5-18.4 14.08-18.25 14.65-18.1 14.75-17.8L14.75-17.8Q14.9-17.35 14.75-16.9 14.6-16.45 14.33-16.1 14.05-15.75 13.73-15.48 13.4-15.2 13.2-15.15L13.2-15.15Q12.95-15.05 13.03-14.9 13.1-14.75 13.5-14.85L13.5-14.85Q13.95-14.9 14.4-15.2 14.85-15.5 15.23-15.95 15.6-16.4 15.8-16.93 16-17.45 15.95-18L15.95-18Q15.85-18.55 15.43-18.95 15-19.35 14.4-19.55 13.8-19.75 13.05-19.75 12.3-19.75 11.65-19.5L11.65-19.5Q10.35-19 9.38-18.03 8.4-17.05 7.68-15.78 6.95-14.5 6.5-13.03 6.05-11.55 5.75-10.05L5.75-10.05Q5.35-8.2 5.5-6.43 5.65-4.65 6.65-3.65L6.65-3.65Q7.15-3.15 7.95-2.95 8.75-2.75 9.65-2.78 10.55-2.8 11.48-3.1 12.4-3.4 13.2-3.9L13.2-3.9Q13.4-4 13.53-4.1 13.65-4.2 13.55-4.25L13.55-4.25Q13.5-4.3 13.15-4.2L13.15-4.2Q10.7-3.6 9.35-3.7 8-3.8 7.43-4.6 6.85-5.4 6.93-6.88 7-8.35 7.4-10.5ZM8-0.2L8-0.2Q6.4-0.3 4.95-1.23 3.5-2.15 2.95-3.55L2.95-3.55Q2.4-5 2.25-6.33 2.1-7.65 2.2-8.9L2.2-8.9Q2.4-11.5 3.23-14.13 4.05-16.75 5.8-18.85L5.8-18.85Q6.9-20.15 8-21.03 9.1-21.9 10.9-22.4L10.9-22.4Q11.8-22.65 12.85-22.7 13.9-22.75 14.93-22.48 15.95-22.2 16.85-21.55 17.75-20.9 18.45-19.8L18.45-19.8Q18.6-19.3 18.75-19.3L18.75-19.3Q18.9-19.45 18.75-19.85L18.75-19.85Q18.45-21.45 17.13-22.4 15.8-23.35 14.03-23.6 12.25-23.85 10.35-23.43 8.45-23 7-21.8L7-21.8Q5.05-20.25 3.73-18.23 2.4-16.2 1.65-13.95 0.9-11.7 0.75-9.3 0.6-6.9 1.1-4.6L1.1-4.6Q1.4-3.1 2.13-2.18 2.85-1.25 3.8-0.73 4.75-0.2 5.85-0.05 6.95 0.1 8.05 0.05L8.05 0.05Q8.35 0.05 8.43 0 8.5-0.05 8.5-0.1L8.5-0.1Q8.5-0.2 8-0.2ZM4.1-12.25L4.1-12.25Q4.1-12.2 4.08-12 4.05-11.8 4.03-11.6 4-11.4 4-11.23 4-11.05 4.1-11.05L4.1-11.05Q4.2-11.05 4.42-11.55 4.65-12.05 4.65-12.1L4.65-12.1Q5.95-15.1 7.75-17.4L7.75-17.4Q7.9-17.55 8.35-18.07 8.8-18.6 9.55-19.15 10.3-19.7 11.35-20.1 12.4-20.5 13.7-20.35L13.7-20.35Q15.05-20.2 15.9-19.35 16.75-18.5 16.5-17.35L16.5-17.35Q16.3-16.25 15.73-15.5 15.15-14.75 14.6-14.5L14.6-14.5Q14.2-14.35 14.38-14.3 14.55-14.25 14.65-14.25L14.65-14.25Q15.25-14.3 15.93-14.73 16.6-15.15 17.1-15.83 17.6-16.5 17.8-17.35 18-18.2 17.65-19.2L17.65-19.2Q17.25-20.25 16.5-20.88 15.75-21.5 14.85-21.78 13.95-22.05 13.03-22.05 12.1-22.05 11.45-21.9L11.45-21.9Q9.55-21.4 8.25-20.45 6.95-19.5 6.13-18.23 5.3-16.95 4.85-15.43 4.4-13.9 4.1-12.25ZM14.2-3.2L14.2-3.2Q14.4-3.5 14.38-3.6 14.35-3.7 14.25-3.68 14.15-3.65 13.98-3.53 13.8-3.4 13.7-3.35L13.7-3.35Q12.7-2.65 11.48-2.23 10.25-1.8 8.75-1.8L8.75-1.8Q8-1.8 6.98-2.33 5.95-2.85 5.4-3.4L5.4-3.4Q5.2-3.65 4.98-3.88 4.75-4.1 4.6-4.05L4.6-4.05Q4.4-3.85 4.6-3.5L4.6-3.5Q5.35-1.75 6.5-1.25 7.65-0.75 8.95-0.75L8.95-0.75Q9.7-0.75 10.48-0.95 11.25-1.15 11.98-1.48 12.7-1.8 13.28-2.25 13.85-2.7 14.2-3.2ZM27.35-26.35L27.35-26.35Q26.5-23.4 25.42-20.3 24.35-17.2 23.2-14.45L23.2-14.45Q23.15-14.3 22.92-13.9 22.7-13.5 22.55-13.55L22.55-13.55Q22.45-13.55 22.42-14.03 22.4-14.5 22.45-14.75L22.45-14.75Q22.55-15.4 22.75-16.35 22.95-17.3 23.17-18.3 23.4-19.3 23.62-20.25 23.85-21.2 24.1-21.9L24.1-21.9Q24.2-22.2 24.45-23.2 24.7-24.2 25-25.6 25.3-27 25.62-28.6 25.95-30.2 26.17-31.7 26.4-33.2 26.5-34.45 26.6-35.7 26.45-36.35L26.45-36.35Q26.3-36.85 26.45-36.85L26.45-36.85Q26.55-36.85 26.62-36.73 26.7-36.6 26.8-36.5L26.8-36.5Q27.3-35.6 27.57-34.3 27.85-33 27.9-31.6 27.95-30.2 27.8-28.8 27.65-27.4 27.35-26.35ZM25.35-37.9L25.35-37.9Q26-35.35 25.67-32.55 25.35-29.75 24.55-26.85 23.75-23.95 22.75-20.98 21.75-18 21.05-15L21.05-15Q20.6-13.1 20.32-11.08 20.05-9.05 20.05-7.08 20.05-5.1 20.37-3.28 20.7-1.45 21.5 0L21.5 0Q21.6 0.2 21.57 0.3 21.55 0.4 21.25 0L21.25 0Q19.95-1.5 19.32-3.4 18.7-5.3 18.6-7.4 18.5-9.5 18.8-11.75 19.1-14 19.65-16.15L19.65-16.15Q20.4-19.15 21.32-22.05 22.25-24.95 23.07-27.7 23.9-30.45 24.45-33.02 25-35.6 25-38L25-38Q25-38.25 25.05-38.25L25.05-38.25Q25.25-38.25 25.35-37.9ZM34.45 0L34.45 0Q32.6-0.85 31.5-2.65 30.4-4.45 30.15-6.8L30.15-6.8Q29.9-9.1 30.15-10.63 30.4-12.15 30.75-13.65L30.75-13.65Q30.8-13.85 30.95-14.33 31.1-14.8 31.17-15.3 31.25-15.8 31.17-16.18 31.1-16.55 30.75-16.65L30.75-16.65Q30.05-16.8 29.15-16.03 28.25-15.25 27.42-14.1 26.6-12.95 25.92-11.73 25.25-10.5 25.05-9.8L25.05-9.8Q24.6-8.35 24.1-7.05 23.6-5.75 23.2-4.45L23.2-4.45Q23.05-3.9 22.95-3.95L22.95-3.95Q22.85-3.95 22.82-4.15 22.8-4.35 22.8-4.6L22.8-4.6Q22.8-6.6 23.1-8.63 23.4-10.65 23.92-12.65 24.45-14.65 25.1-16.65 25.75-18.65 26.35-20.7L26.35-20.7Q27.15-23.25 27.87-25.9 28.6-28.55 28.85-31.6L28.85-31.6Q28.85-31.85 28.85-31.88 28.85-31.9 28.9-31.9L28.9-31.9Q29.05-31.9 29.15-31.5L29.15-31.5Q29.4-30.85 29.37-29.68 29.35-28.5 29.17-27.1 29-25.7 28.67-24.25 28.35-22.8 28-21.65L28-21.65Q28.95-22.65 30.25-23.2 31.55-23.75 33.35-23.5L33.35-23.5Q35.4-23.2 36.5-22.03 37.6-20.85 38-19.2 38.4-17.55 38.22-15.68 38.05-13.8 37.6-12.05L37.6-12.05Q37.2-10.7 36.85-9.68 36.5-8.65 36.15-7.8 35.8-6.95 35.55-6.2 35.3-5.45 35.15-4.6L35.15-4.6Q35.05-4.05 34.95-4.05L34.95-4.05Q34.85-4.05 34.77-4.25 34.7-4.45 34.65-4.65L34.65-4.65Q34.35-5.75 34.62-7.35 34.9-8.95 35.35-10.73 35.8-12.5 36.17-14.33 36.55-16.15 36.47-17.7 36.4-19.25 35.65-20.43 34.9-21.6 33.1-22.05L33.1-22.05Q32.35-22.25 31.47-22.18 30.6-22.1 29.82-21.78 29.05-21.45 28.45-20.85 27.85-20.25 27.65-19.45L27.65-19.45Q28.6-20.45 30.1-21.1 31.6-21.75 33-21.3L33-21.3Q34.3-20.9 34.85-19.85 35.4-18.8 35.5-18L35.5-18Q35.7-16.25 35.27-14.83 34.85-13.4 34.3-12.1L34.3-12.1Q34.2-11.95 34-11.63 33.8-11.3 33.7-11.35L33.7-11.35Q33.6-11.35 33.6-11.75 33.6-12.15 33.65-12.35L33.65-12.35Q33.8-12.85 33.9-13.93 34-15 33.97-16.15 33.95-17.3 33.67-18.3 33.4-19.3 32.8-19.65L32.8-19.65Q32.1-20.05 31.1-19.88 30.1-19.7 28.95-18.65L28.95-18.65Q27.95-17.75 27.25-16.57 26.55-15.4 26.05-13.5L26.05-13.5Q26.35-14.05 27-15.05 27.65-16.05 28.47-16.95 29.3-17.85 30.22-18.38 31.15-18.9 32-18.5L32-18.5Q32.55-18.2 32.72-17.48 32.9-16.75 32.82-15.85 32.75-14.95 32.55-14.1 32.35-13.25 32.2-12.75L32.2-12.75Q31.65-11.25 31.45-9.47 31.25-7.7 31.47-6 31.7-4.3 32.45-2.8 33.2-1.3 34.65-0.25L34.65-0.25Q35.1 0 34.82 0 34.55 0 34.45 0ZM35.75-0.4L35.75-0.4Q35.05-0.8 34.42-1.25 33.8-1.7 33.2-3L33.2-3Q32.95-3.5 32.82-4.35 32.7-5.2 32.67-5.98 32.65-6.75 32.75-7.28 32.85-7.8 33-7.75L33-7.75Q33.1-7.75 33.2-7.53 33.3-7.3 33.35-7 33.4-6.7 33.45-6.43 33.5-6.15 33.5-6.05L33.5-6.05Q33.7-4.95 33.85-4.42 34-3.9 34.25-3.3L34.25-3.3Q34.65-2.5 35.05-1.85 35.45-1.2 36.05-0.65L36.05-0.65Q36.3-0.45 36.17-0.35 36.05-0.25 35.75-0.4ZM23.1 0L23.1 0Q23.15 0 23.02 0.05 22.9 0.1 22.55 0L22.55 0Q22.15-0.2 21.72-0.75 21.3-1.3 21.05-2.9L21.05-2.9Q20.95-3.55 20.95-4.48 20.95-5.4 21.02-6.23 21.1-7.05 21.25-7.65 21.4-8.25 21.6-8.2L21.6-8.2Q21.65-8.2 21.7-7.9 21.75-7.6 21.8-7.23 21.85-6.85 21.85-6.48 21.85-6.1 21.85-5.95L21.85-5.95Q21.9-4.85 21.97-4.33 22.05-3.8 22.2-2.9L22.2-2.9Q22.35-1.95 22.55-1.18 22.75-0.4 23.1 0ZM58.7-17.6L58.7-17.6Q58.3-15.6 57.34-13.6 56.4-11.6 55.55-9.85L55.55-9.85Q55.5-9.75 55.32-9.5 55.15-9.25 55.05-9.25L55.05-9.25Q54.9-9.3 54.9-9.58 54.9-9.85 54.9-9.95L54.9-9.95Q54.95-10.4 55.07-11.03 55.2-11.65 55.3-12.33 55.4-13 55.52-13.63 55.65-14.25 55.8-14.75L55.8-14.75Q56.25-16.45 56.55-17.68 56.84-18.9 57-19.9 57.15-20.9 57.17-21.8 57.2-22.7 57.05-23.75L57.05-23.75Q57-24.15 57.09-24.25L57.09-24.25Q57.2-24.3 57.34-24.15 57.5-24 57.59-23.85L57.59-23.85Q58.45-22.5 58.75-20.88 59.05-19.25 58.7-17.6ZM59.7-21.25L59.9-20.95Q60.55-20 60.55-18.45 60.55-16.9 60.25-15.28 59.95-13.65 59.5-12.15 59.05-10.65 58.84-9.75L58.84-9.75Q58.45-8 57.75-6.25 57.05-4.5 56.55-3.15L56.55-3.15Q56.5-3 56.4-2.83 56.3-2.65 56.2-2.65L56.2-2.65Q56.09-2.65 56.09-2.85 56.09-3.05 56.09-3.2L56.09-3.2Q55.95-5.95 56.7-8.58 57.45-11.2 58.3-13.9L58.3-13.9Q58.8-15.55 59.25-17.28 59.7-19 59.65-21.05L59.65-21.05Q59.65-21.25 59.7-21.25L59.7-21.25ZM55.2-21.8L55.2-21.8Q52.15-20.55 50.02-18.23 47.9-15.9 46.75-13L46.75-13Q46.25-11.7 46-10.68 45.75-9.65 45.59-8.45L45.59-8.45Q45.55-8.2 45.75-7.95 45.95-7.7 46.15-7.95L46.15-7.95Q47.05-9.05 48.45-10.75 49.84-12.45 51.25-14.35 52.65-16.25 53.77-18.2 54.9-20.15 55.2-21.8ZM51.84-4.85L51.84-4.85Q51.09-3.8 50.4-2.9 49.7-2 48.84-1.33 48-0.65 46.95-0.25 45.9 0.15 44.55 0.2L44.55 0.2Q42.3 0.3 41.12-0.95 39.95-2.2 39.5-4 39.05-5.8 39.17-7.73 39.3-9.65 39.7-10.9L39.7-10.9Q40.25-12.65 41.02-14.23 41.8-15.8 42.67-17.07 43.55-18.35 44.47-19.28 45.4-20.2 46.3-20.7L46.3-20.7Q46.34-20.7 46.52-20.8 46.7-20.9 46.7-20.75L46.7-20.75Q46.75-20.75 46.65-20.6 46.55-20.45 46.45-20.35L46.45-20.35Q43.84-17.65 42.32-14.25 40.8-10.85 40.59-7.25L40.59-7.25Q40.55-6.35 40.67-5.3 40.8-4.25 41.17-3.33 41.55-2.4 42.25-1.78 42.95-1.15 44.15-1.15L44.15-1.15Q45.09-1.15 45.9-1.48 46.7-1.8 47.4-2.33 48.09-2.85 48.67-3.48 49.25-4.1 49.7-4.65L49.7-4.65Q50.7-5.9 51.55-7.25L51.55-7.25Q51.55-8.25 51.67-9.2 51.8-10.15 52.05-11.1L52.05-11.1Q52.2-11.8 52.32-12.23 52.45-12.65 52.57-13.03 52.7-13.4 52.82-13.83 52.95-14.25 53.2-14.95L53.2-14.95Q52.4-13.55 51.62-12.33 50.84-11.1 49.97-9.98 49.09-8.85 48.17-7.78 47.25-6.7 46.15-5.6L46.15-5.6Q45.3-4.75 44.75-5.05 44.2-5.35 44.09-6.45L44.09-6.45Q44-8.15 44.27-9.75 44.55-11.35 45.25-13.1L45.25-13.1Q45.9-14.7 46.87-16.2 47.84-17.7 49.12-18.93 50.4-20.15 51.95-21.03 53.5-21.9 55.25-22.2L55.25-22.2Q55.34-22.75 55.42-23.15 55.5-23.55 55.55-23.95L55.55-23.95Q55.65-24.5 55.65-24.5L55.65-24.5Q55.75-24.55 55.87-24.4 56-24.25 56.09-24L56.09-24Q56.7-22.35 56.5-20.7 56.3-19.05 55.77-17.35 55.25-15.65 54.55-13.88 53.84-12.1 53.4-10.3L53.4-10.3Q52.8-7.75 53.07-5.03 53.34-2.3 55.2-0.1L55.2-0.1Q55.34 0.1 55.34 0.1L55.34 0.1Q55.3 0.15 55.05 0L55.05 0Q53.59-0.9 52.87-2.18 52.15-3.45 51.84-4.85ZM53.59-22.55L53.59-22.55Q53.7-22.45 53.57-22.4 53.45-22.35 53.05-22.25L53.05-22.25Q52.4-22.05 51.47-21.5 50.55-20.95 49.52-20.1 48.5-19.25 47.5-18.13 46.5-17 45.75-15.7L45.75-15.7Q45-14.35 44.47-13.05 43.95-11.75 43.62-10.68 43.3-9.6 43.15-8.83 43-8.05 43-7.75L43-7.75Q43-7 43-6.18 43-5.35 43.2-4.7 43.4-4.05 43.9-3.7 44.4-3.35 45.4-3.5L45.4-3.5Q45.45-3.5 45.65-3.58 45.84-3.65 46.05-3.73 46.25-3.8 46.42-3.85 46.59-3.9 46.65-3.9L46.65-3.9Q46.7-3.8 46.57-3.65 46.45-3.5 46.25-3.33 46.05-3.15 45.87-3 45.7-2.85 45.65-2.8L45.65-2.8Q44.4-2.05 43.55-2.35 42.7-2.65 42.22-3.48 41.75-4.3 41.57-5.43 41.4-6.55 41.45-7.45L41.45-7.45Q41.55-9.2 42-10.93 42.45-12.65 43.15-14.4L43.15-14.4Q43.7-15.75 44.8-17.18 45.9-18.6 47.27-19.8 48.65-21 50.15-21.78 51.65-22.55 53.05-22.6L53.05-22.6Q53.55-22.6 53.59-22.55ZM56.55-0.1L56.55-0.1Q56.65 0.05 56.59 0.1L56.59 0.1Q56.45 0.1 56.2 0L56.2 0Q56.05-0.1 55.4-0.6 54.75-1.1 54.45-2.2L54.45-2.2Q54.34-2.6 54.27-3.23 54.2-3.85 54.2-4.4 54.2-4.95 54.27-5.35 54.34-5.75 54.5-5.75L54.5-5.75Q54.65-5.75 54.82-5.15 55-4.55 55.05-4.4L55.05-4.4Q55.2-3.7 55.32-3.18 55.45-2.65 55.59-2.2L55.59-2.2Q55.8-1.65 56.12-0.95 56.45-0.25 56.55-0.1ZM75.39-22.2L75.39-22.2Q75.44-22.15 75.44-21.98 75.44-21.8 75.39-21.7L75.39-21.7Q74.94-20.25 73.84-19.65 72.74-19.05 71.89-19.05L71.89-19.05Q70.84-19.05 69.74-19.23 68.64-19.4 67.64-20.15L67.64-20.15Q67.54-20.25 67.39-20.35 67.24-20.45 67.24-20.55L67.24-20.55Q67.24-20.7 67.39-20.78 67.54-20.85 67.64-20.9L67.64-20.9Q68.09-21 68.82-21.08 69.54-21.15 70.24-21.05L70.24-21.05Q70.74-20.95 71.44-20.95 72.14-20.95 72.87-21.05 73.59-21.15 74.19-21.38 74.79-21.6 75.09-22.05L75.09-22.05Q75.24-22.25 75.39-22.2ZM75.74-23.75L75.74-23.75 75.59-23.5Q74.74-22.4 73.79-22.08 72.84-21.75 71.79-21.8 70.74-21.85 69.67-22.08 68.59-22.3 67.54-22.35L67.54-22.35Q66.14-22.4 64.74-21.5 63.34-20.6 62.34-18.35L62.34-18.35Q62.19-18.05 62.14-18.23 62.09-18.4 62.14-18.55L62.14-18.55Q62.54-20.05 63.09-21.05 63.64-22.05 64.27-22.68 64.89-23.3 65.59-23.6 66.29-23.9 67.04-24L67.04-24Q67.89-26.85 68.37-29.58 68.84-32.3 68.44-34.75L68.44-34.75Q68.44-34.95 68.44-34.95L68.44-34.95Q68.54-35 68.64-34.9 68.74-34.8 68.74-34.75L68.74-34.75Q69.84-32.35 69.64-29.63 69.44-26.9 68.64-23.9L68.64-23.9Q68.89-23.85 69.04-23.85 69.19-23.85 69.39-23.85L69.39-23.85Q69.64-25.15 69.87-26.63 70.09-28.1 70.22-29.45 70.34-30.8 70.29-31.9 70.24-33 69.94-33.55L69.94-33.55Q69.79-34 69.94-34L69.94-34Q70.04-34 70.09-33.9 70.14-33.8 70.24-33.7L70.24-33.7Q70.94-33 71.34-31.8 71.74-30.6 71.89-29.25 72.04-27.9 71.99-26.58 71.94-25.25 71.69-24.25L71.69-24.25 71.49-23.45Q71.64-23.35 71.79-23.35 71.94-23.35 72.09-23.3L72.09-23.3Q72.39-24.8 72.62-26.3 72.84-27.8 72.79-29.45L72.79-29.45Q72.79-29.8 72.84-29.8L72.84-29.8Q72.94-29.8 72.99-29.65 73.04-29.5 73.09-29.4L73.09-29.4Q73.69-28.3 73.67-26.65 73.64-25 73.39-23.15L73.39-23.15Q74.49-23.15 75.49-23.75L75.49-23.75Q75.74-23.9 75.74-23.75ZM65.39-20.35L65.39-20.35Q65.39-20.1 65.12-19.85 64.84-19.6 64.69-19.5L64.69-19.5Q64.44-19.3 64.12-19.03 63.79-18.75 63.54-18.45L63.54-18.45Q63.29-18.05 63.07-17.75 62.84-17.45 62.69-16.9L62.69-16.9Q62.64-16.8 62.57-16.73 62.49-16.65 62.44-16.7L62.44-16.7Q62.29-16.85 62.44-17.35L62.44-17.35Q62.64-18.1 62.84-18.57 63.04-19.05 63.59-19.6L63.59-19.6Q63.79-19.8 64.09-20 64.39-20.2 64.69-20.35 64.99-20.5 65.19-20.5 65.39-20.5 65.39-20.35ZM69.29-0.25L69.29-0.25Q69.54-0.35 69.49-0.2 69.44-0.05 69.34 0L69.34 0Q68.44 0.3 67.44-0.1 66.44-0.5 65.59-1.35 64.74-2.2 64.14-3.33 63.54-4.45 63.39-5.55L63.39-5.55Q63.14-7.9 63.34-10.1 63.54-12.3 64.09-14.45L64.09-14.45 64.94-17.6Q64.64-17.6 64.34-17.75L64.34-17.75Q63.99-17.85 63.99-18L63.99-18Q63.99-18.1 64.34-18.3L64.34-18.3Q65.74-19 67.17-18.9 68.59-18.8 70.04-18.55L70.04-18.55Q70.94-18.4 71.87-18.32 72.79-18.25 73.89-18.7L73.89-18.7Q73.99-18.8 74.09-18.75L74.09-18.75Q74.19-18.65 74.04-18.4L74.04-18.4Q73.74-17.75 73.19-17.45 72.64-17.15 72.04-17L72.04-17Q71.64-15.7 71.34-14.68 71.04-13.65 70.84-12.95L70.84-12.95Q70.29-10.55 69.57-8.08 68.84-5.6 68.59-3.9L68.59-3.9Q68.49-3.35 68.39-3.3L68.39-3.3Q68.29-3.25 68.19-3.5 68.09-3.75 68.04-3.9L68.04-3.9Q67.84-5.35 67.97-6.93 68.09-8.5 68.44-10.15 68.79-11.8 69.24-13.48 69.69-15.15 70.19-16.85L70.19-16.85Q69.94-16.85 69.69-16.85 69.44-16.85 69.19-16.9L69.19-16.9Q68.79-15.85 68.37-14.83 67.94-13.8 67.54-12.9L67.54-12.9Q67.49-12.8 67.32-12.43 67.14-12.05 67.04-12.05L67.04-12.05Q66.84-12.1 66.89-12.53 66.94-12.95 66.94-13.1L66.94-13.1Q67.04-13.85 67.27-14.85 67.49-15.85 67.69-17L67.69-17Q67.44-17.05 67.14-17.07 66.84-17.1 66.54-17.2L66.54-17.2Q66.24-16.2 65.97-15.25 65.69-14.3 65.44-13.35L65.44-13.35Q65.04-11.6 64.84-9.63 64.64-7.65 64.84-5.55L64.84-5.55Q64.94-4.6 65.37-3.6 65.79-2.6 66.39-1.8 66.99-1 67.77-0.55 68.54-0.1 69.29-0.25ZM69.74-1.35L69.74-1.35Q69.99-1.55 70.04-1.38 70.09-1.2 69.84-1.05L69.84-1.05Q69.64-0.9 69.32-0.83 68.99-0.75 68.59-0.8 68.19-0.85 67.74-1.1 67.29-1.35 66.89-1.9L66.89-1.9Q66.54-2.35 66.32-3.2 66.09-4.05 65.99-4.88 65.89-5.7 65.94-6.3 65.99-6.9 66.19-6.9L66.19-6.9Q66.44-6.9 66.57-6.2 66.69-5.5 66.79-5.05L66.79-5.05Q66.99-4.25 67.34-3.4 67.69-2.55 68.09-2.05L68.09-2.05Q68.59-1.4 68.99-1.28 69.39-1.15 69.74-1.35ZM89.59-12.1L89.59-12.1Q88.09-12.2 86.42-12.58 84.74-12.95 83.29-13.5L83.29-13.5Q83.19-13.55 82.97-13.65 82.74-13.75 82.74-13.9L82.74-13.9Q82.74-14.05 82.97-14.13 83.19-14.2 83.29-14.2L83.29-14.2Q83.99-14.35 85.12-14.33 86.24-14.3 86.94-14.2L86.94-14.2Q87.54-14.1 88.59-14.1 89.64-14.1 90.74-14.2 91.84-14.3 92.84-14.55 93.84-14.8 94.29-15.2L94.29-15.2Q94.49-15.4 94.54-15.35 94.59-15.3 94.57-15.2 94.54-15.1 94.49-14.95 94.44-14.8 94.44-14.8L94.44-14.8Q94.09-14.1 93.49-13.58 92.89-13.05 92.22-12.73 91.54-12.4 90.84-12.23 90.14-12.05 89.59-12.1ZM83.74-10.35L83.74-10.35Q82.39-10.45 80.97-10.7 79.54-10.95 78.39-11.15L78.39-11.15Q78.04-11.15 78.04-11.35L78.04-11.35Q78.04-11.45 78.22-11.53 78.39-11.6 78.54-11.65L78.54-11.65Q80.49-12.2 82.57-12.08 84.64-11.95 86.74-11.7L86.74-11.7Q88.09-11.55 89.47-11.43 90.84-11.3 92.29-11.85L92.29-11.85Q92.44-11.9 92.47-11.8 92.49-11.7 92.39-11.6L92.39-11.6Q91.79-10.75 90.64-10.45 89.49-10.15 88.19-10.1 86.89-10.05 85.67-10.18 84.44-10.3 83.74-10.35ZM75.64-11.7L75.64-11.7Q75.59-11.6 75.52-11.65 75.44-11.7 75.54-11.85L75.54-11.85Q76.19-13.5 77.12-14.58 78.04-15.65 79.09-16.25 80.14-16.85 81.29-17.05 82.44-17.25 83.59-17.2L83.59-17.2Q85.14-17.15 86.67-16.9 88.19-16.65 89.62-16.48 91.04-16.3 92.37-16.32 93.69-16.35 94.84-16.9L94.84-16.9Q94.89-16.9 94.99-16.82 95.09-16.75 94.84-16.5L94.84-16.5Q93.69-15.35 92.32-15.08 90.94-14.8 89.42-14.93 87.89-15.05 86.32-15.35 84.74-15.65 83.19-15.7L83.19-15.7Q81.29-15.8 79.22-14.9 77.14-14 75.64-11.7ZM77.59-11.9L77.59-11.9Q77.19-11.55 76.74-11.15 76.29-10.75 75.89-10.2L75.89-10.2Q75.64-10.05 75.64-10.15L75.64-10.15Q75.64-10.45 75.69-10.5L75.69-10.5Q75.69-10.55 75.74-10.6L75.74-10.6Q75.94-11.4 76.29-11.9 76.64-12.4 77.39-13L77.39-13Q77.69-13.2 78.12-13.43 78.54-13.65 78.94-13.78 79.34-13.9 79.64-13.9 79.94-13.9 79.99-13.7L79.99-13.7Q80.04-13.5 79.64-13.28 79.24-13.05 79.09-12.95L79.09-12.95Q78.24-12.4 77.59-11.9ZM116.44-17.6L116.44-17.6Q116.04-15.6 115.09-13.6 114.14-11.6 113.29-9.85L113.29-9.85Q113.24-9.75 113.06-9.5 112.89-9.25 112.79-9.25L112.79-9.25Q112.64-9.3 112.64-9.58 112.64-9.85 112.64-9.95L112.64-9.95Q112.69-10.4 112.81-11.03 112.94-11.65 113.04-12.33 113.14-13 113.26-13.63 113.39-14.25 113.54-14.75L113.54-14.75Q113.99-16.45 114.29-17.68 114.59-18.9 114.74-19.9 114.89-20.9 114.91-21.8 114.94-22.7 114.79-23.75L114.79-23.75Q114.74-24.15 114.84-24.25L114.84-24.25Q114.94-24.3 115.09-24.15 115.24-24 115.34-23.85L115.34-23.85Q116.19-22.5 116.49-20.88 116.79-19.25 116.44-17.6ZM117.44-21.25L117.64-20.95Q118.29-20 118.29-18.45 118.29-16.9 117.99-15.28 117.69-13.65 117.24-12.15 116.79-10.65 116.59-9.75L116.59-9.75Q116.19-8 115.49-6.25 114.79-4.5 114.29-3.15L114.29-3.15Q114.24-3 114.14-2.83 114.04-2.65 113.94-2.65L113.94-2.65Q113.84-2.65 113.84-2.85 113.84-3.05 113.84-3.2L113.84-3.2Q113.69-5.95 114.44-8.58 115.19-11.2 116.04-13.9L116.04-13.9Q116.54-15.55 116.99-17.28 117.44-19 117.39-21.05L117.39-21.05Q117.39-21.25 117.44-21.25L117.44-21.25ZM112.94-21.8L112.94-21.8Q109.89-20.55 107.76-18.23 105.64-15.9 104.49-13L104.49-13Q103.99-11.7 103.74-10.68 103.49-9.65 103.34-8.45L103.34-8.45Q103.29-8.2 103.49-7.95 103.69-7.7 103.89-7.95L103.89-7.95Q104.79-9.05 106.19-10.75 107.59-12.45 108.99-14.35 110.39-16.25 111.51-18.2 112.64-20.15 112.94-21.8ZM109.59-4.85L109.59-4.85Q108.84-3.8 108.14-2.9 107.44-2 106.59-1.33 105.74-0.65 104.69-0.25 103.64 0.15 102.29 0.2L102.29 0.2Q100.04 0.3 98.86-0.95 97.69-2.2 97.24-4 96.79-5.8 96.91-7.73 97.04-9.65 97.44-10.9L97.44-10.9Q97.99-12.65 98.76-14.23 99.54-15.8 100.41-17.07 101.29-18.35 102.21-19.28 103.14-20.2 104.04-20.7L104.04-20.7Q104.09-20.7 104.26-20.8 104.44-20.9 104.44-20.75L104.44-20.75Q104.49-20.75 104.39-20.6 104.29-20.45 104.19-20.35L104.19-20.35Q101.59-17.65 100.06-14.25 98.54-10.85 98.34-7.25L98.34-7.25Q98.29-6.35 98.41-5.3 98.54-4.25 98.91-3.33 99.29-2.4 99.99-1.78 100.69-1.15 101.89-1.15L101.89-1.15Q102.84-1.15 103.64-1.48 104.44-1.8 105.14-2.33 105.84-2.85 106.41-3.48 106.99-4.1 107.44-4.65L107.44-4.65Q108.44-5.9 109.29-7.25L109.29-7.25Q109.29-8.25 109.41-9.2 109.54-10.15 109.79-11.1L109.79-11.1Q109.94-11.8 110.06-12.23 110.19-12.65 110.31-13.03 110.44-13.4 110.56-13.83 110.69-14.25 110.94-14.95L110.94-14.95Q110.14-13.55 109.36-12.33 108.59-11.1 107.71-9.98 106.84-8.85 105.91-7.78 104.99-6.7 103.89-5.6L103.89-5.6Q103.04-4.75 102.49-5.05 101.94-5.35 101.84-6.45L101.84-6.45Q101.74-8.15 102.01-9.75 102.29-11.35 102.99-13.1L102.99-13.1Q103.64-14.7 104.61-16.2 105.59-17.7 106.86-18.93 108.14-20.15 109.69-21.03 111.24-21.9 112.99-22.2L112.99-22.2Q113.09-22.75 113.16-23.15 113.24-23.55 113.29-23.95L113.29-23.95Q113.39-24.5 113.39-24.5L113.39-24.5Q113.49-24.55 113.61-24.4 113.74-24.25 113.84-24L113.84-24Q114.44-22.35 114.24-20.7 114.04-19.05 113.51-17.35 112.99-15.65 112.29-13.88 111.59-12.1 111.14-10.3L111.14-10.3Q110.54-7.75 110.81-5.03 111.09-2.3 112.94-0.1L112.94-0.1Q113.09 0.1 113.09 0.1L113.09 0.1Q113.04 0.15 112.79 0L112.79 0Q111.34-0.9 110.61-2.18 109.89-3.45 109.59-4.85ZM111.34-22.55L111.34-22.55Q111.44-22.45 111.31-22.4 111.19-22.35 110.79-22.25L110.79-22.25Q110.14-22.05 109.21-21.5 108.29-20.95 107.26-20.1 106.24-19.25 105.24-18.13 104.24-17 103.49-15.7L103.49-15.7Q102.74-14.35 102.21-13.05 101.69-11.75 101.36-10.68 101.04-9.6 100.89-8.83 100.74-8.05 100.74-7.75L100.74-7.75Q100.74-7 100.74-6.18 100.74-5.35 100.94-4.7 101.14-4.05 101.64-3.7 102.14-3.35 103.14-3.5L103.14-3.5Q103.19-3.5 103.39-3.58 103.59-3.65 103.79-3.73 103.99-3.8 104.16-3.85 104.34-3.9 104.39-3.9L104.39-3.9Q104.44-3.8 104.31-3.65 104.19-3.5 103.99-3.33 103.79-3.15 103.61-3 103.44-2.85 103.39-2.8L103.39-2.8Q102.14-2.05 101.29-2.35 100.44-2.65 99.96-3.48 99.49-4.3 99.31-5.43 99.14-6.55 99.19-7.45L99.19-7.45Q99.29-9.2 99.74-10.93 100.19-12.65 100.89-14.4L100.89-14.4Q101.44-15.75 102.54-17.18 103.64-18.6 105.01-19.8 106.39-21 107.89-21.78 109.39-22.55 110.79-22.6L110.79-22.6Q111.29-22.6 111.34-22.55ZM114.29-0.1L114.29-0.1Q114.39 0.05 114.34 0.1L114.34 0.1Q114.19 0.1 113.94 0L113.94 0Q113.79-0.1 113.14-0.6 112.49-1.1 112.19-2.2L112.19-2.2Q112.09-2.6 112.01-3.23 111.94-3.85 111.94-4.4 111.94-4.95 112.01-5.35 112.09-5.75 112.24-5.75L112.24-5.75Q112.39-5.75 112.56-5.15 112.74-4.55 112.79-4.4L112.79-4.4Q112.94-3.7 113.06-3.18 113.19-2.65 113.34-2.2L113.34-2.2Q113.54-1.65 113.86-0.95 114.19-0.25 114.29-0.1ZM139.59-15.15L139.59-15.15Q139.54-13 138.84-10.78 138.14-8.55 136.89-6.6 135.64-4.65 133.91-3.13 132.19-1.6 130.09-0.8L130.09-0.8Q129.44-0.55 129.34-0.7L129.34-0.7Q129.34-0.85 129.51-0.95 129.69-1.05 129.94-1.3L129.94-1.3Q131.89-2.8 133.39-4.45 134.89-6.1 135.94-8.03 136.99-9.95 137.51-12.2 138.04-14.45 138.04-17.1L138.04-17.1Q138.04-19.45 136.61-20.88 135.19-22.3 133.14-22.4L133.14-22.4Q131.54-22.5 129.86-21.63 128.19-20.75 126.79-18.9L126.79-18.9Q126.74-19.85 127.29-20.75 127.84-21.65 128.76-22.33 129.69-23 130.89-23.4 132.09-23.8 133.34-23.8L133.34-23.8Q134.54-23.8 135.69-23.33 136.84-22.85 137.74-21.8 138.64-20.75 139.14-19.13 139.64-17.5 139.59-15.15ZM125.34-12.35L125.34-12.35Q124.64-9.2 123.86-5.98 123.09-2.75 122.09 0L122.09 0Q121.99 0.1 121.86 0.35 121.74 0.6 121.64 0.5L121.64 0.5Q121.59 0.5 121.49 0.25L121.49 0.25Q121.44 0.15 121.44 0L121.44 0Q121.49-0.65 121.64-1.65 121.79-2.65 121.96-3.7 122.14-4.75 122.34-5.78 122.54-6.8 122.69-7.55L122.69-7.55Q122.74-7.85 122.94-8.93 123.14-10 123.36-11.45 123.59-12.9 123.81-14.58 124.04-16.25 124.19-17.85 124.34-19.45 124.36-20.75 124.39-22.05 124.19-22.75L124.19-22.75Q124.14-22.95 124.14-23.13 124.14-23.3 124.19-23.3L124.19-23.3Q124.29-23.3 124.39-23.15 124.49-23 124.54-22.9L124.54-22.9Q125.09-22 125.36-20.65 125.64-19.3 125.71-17.8 125.79-16.3 125.66-14.85 125.54-13.4 125.34-12.35ZM127.14-9.2L127.14-9.2Q126.84-7.3 126.56-5.78 126.29-4.25 125.99-2.65L125.99-2.65Q127.14-3.85 128.01-4.83 128.89-5.8 129.56-6.8 130.24-7.8 130.81-8.9 131.39-10 131.94-11.45L131.94-11.45Q132.39-12.7 132.59-14.15 132.79-15.6 132.69-16.5L132.69-16.5Q132.69-16.8 132.51-16.95 132.34-17.1 131.89-16.9L131.89-16.9Q131.44-16.65 130.74-16.03 130.04-15.4 129.31-14.43 128.59-13.45 127.99-12.13 127.39-10.8 127.14-9.2ZM127.49-13.85L127.49-13.85Q127.69-14.5 128.34-15.5 128.99-16.5 129.84-17.35 130.69-18.2 131.64-18.68 132.59-19.15 133.44-18.7L133.44-18.7Q134.04-18.4 134.24-17.48 134.44-16.55 134.34-15.4 134.24-14.25 133.91-12.98 133.59-11.7 133.19-10.75L133.19-10.75Q132.04-7.9 130.31-5.65 128.59-3.4 125.69-1.45L125.69-1.45Q125.64-1.2 125.81-1.13 125.99-1.05 126.26-1.1 126.54-1.15 126.86-1.3 127.19-1.45 127.44-1.7L127.44-1.7Q127.99-2.15 128.66-2.75 129.34-3.35 129.99-3.9 130.64-4.45 131.09-4.78 131.54-5.1 131.64-5.05L131.64-5.05Q131.69-5 131.54-4.73 131.39-4.45 131.14-4.1 130.89-3.75 130.64-3.43 130.39-3.1 130.29-3L130.29-3Q129.64-2.3 129.11-1.78 128.59-1.25 127.84-0.75L127.84-0.75Q127.24-0.3 126.66-0.13 126.09 0.05 125.39-0.2L125.39-0.2Q124.84 2.3 124.06 5 123.29 7.7 122.74 9.8L122.74 9.8Q122.59 10.6 122.44 10.5L122.44 10.5Q122.34 10.4 122.31 10.15 122.29 9.9 122.29 9.6L122.29 9.6Q122.29 7.5 122.54 5.55 122.79 3.6 123.19 1.63 123.59-0.35 124.06-2.38 124.54-4.4 125.04-6.6L125.04-6.6Q125.59-9 126.06-11.28 126.54-13.55 126.89-16.35L126.89-16.35Q127.04-17.55 127.64-18.55 128.24-19.55 129.09-20.23 129.94-20.9 130.96-21.25 131.99-21.6 132.99-21.6L132.99-21.6Q134.64-21.55 135.86-20.38 137.09-19.2 137.09-16.6L137.09-16.6Q137.09-14.7 136.51-13.05 135.94-11.4 135.24-10.05L135.24-10.05Q135.14-9.9 134.81-9.5 134.49-9.1 134.39-9.2L134.39-9.2Q134.34-9.25 134.46-9.65 134.59-10.05 134.69-10.3L134.69-10.3Q134.99-11.1 135.24-12.45 135.49-13.8 135.51-15.2 135.54-16.6 135.16-17.8 134.79-19 133.79-19.5L133.79-19.5Q132.59-20.1 131.46-19.68 130.34-19.25 129.46-18.3 128.59-17.35 128.04-16.13 127.49-14.9 127.49-13.85ZM123.09-24.25L123.09-24.25Q123.84-21.6 123.66-18.68 123.49-15.75 122.84-12.68 122.19-9.6 121.34-6.45 120.49-3.3 119.89-0.15L119.89-0.15Q119.59 1.55 119.41 3.53 119.24 5.5 119.34 7.55 119.44 9.6 119.86 11.58 120.29 13.55 121.19 15.25L121.19 15.25Q121.39 15.65 121.26 15.65 121.14 15.65 120.89 15.35L120.89 15.35Q119.69 13.65 119.06 11.58 118.44 9.5 118.21 7.33 117.99 5.15 118.09 2.95 118.19 0.75 118.49-1.25L118.49-1.25Q118.99-4.4 119.76-7.45 120.54-10.5 121.24-13.4 121.94-16.3 122.41-19.03 122.89-21.75 122.74-24.25L122.74-24.25Q122.74-24.6 122.84-24.6L122.84-24.6Q122.89-24.65 122.99-24.5 123.09-24.35 123.09-24.25ZM122.89 15.65L122.89 15.65Q122.74 15.7 122.54 15.5L122.54 15.5 122.34 15.3Q121.79 14.65 121.34 13.95 120.89 13.25 120.59 11.6L120.59 11.6Q120.49 10.95 120.44 10 120.39 9.05 120.39 8.15 120.39 7.25 120.49 6.6 120.59 5.95 120.79 6L120.79 6Q120.99 6 121.14 6.7 121.29 7.4 121.34 8.1L121.34 8.1Q121.44 9.05 121.46 9.83 121.49 10.6 121.64 11.4L121.64 11.4Q121.84 12.4 122.14 13.35 122.44 14.3 122.84 15.15L122.84 15.15Q122.89 15.25 122.91 15.45 122.94 15.65 122.89 15.65ZM160.93-15.15L160.93-15.15Q160.88-13 160.18-10.78 159.48-8.55 158.23-6.6 156.98-4.65 155.26-3.13 153.53-1.6 151.43-0.8L151.43-0.8Q150.78-0.55 150.68-0.7L150.68-0.7Q150.68-0.85 150.86-0.95 151.03-1.05 151.28-1.3L151.28-1.3Q153.23-2.8 154.73-4.45 156.23-6.1 157.28-8.03 158.33-9.95 158.86-12.2 159.38-14.45 159.38-17.1L159.38-17.1Q159.38-19.45 157.96-20.88 156.53-22.3 154.48-22.4L154.48-22.4Q152.88-22.5 151.21-21.63 149.53-20.75 148.13-18.9L148.13-18.9Q148.08-19.85 148.63-20.75 149.18-21.65 150.11-22.33 151.03-23 152.23-23.4 153.43-23.8 154.68-23.8L154.68-23.8Q155.88-23.8 157.03-23.33 158.18-22.85 159.08-21.8 159.98-20.75 160.48-19.13 160.98-17.5 160.93-15.15ZM146.68-12.35L146.68-12.35Q145.98-9.2 145.21-5.98 144.43-2.75 143.43 0L143.43 0Q143.33 0.1 143.21 0.35 143.08 0.6 142.98 0.5L142.98 0.5Q142.93 0.5 142.83 0.25L142.83 0.25Q142.78 0.15 142.78 0L142.78 0Q142.83-0.65 142.98-1.65 143.13-2.65 143.31-3.7 143.48-4.75 143.68-5.78 143.88-6.8 144.03-7.55L144.03-7.55Q144.08-7.85 144.28-8.93 144.48-10 144.71-11.45 144.93-12.9 145.16-14.58 145.38-16.25 145.53-17.85 145.68-19.45 145.71-20.75 145.73-22.05 145.53-22.75L145.53-22.75Q145.48-22.95 145.48-23.13 145.48-23.3 145.53-23.3L145.53-23.3Q145.63-23.3 145.73-23.15 145.83-23 145.88-22.9L145.88-22.9Q146.43-22 146.71-20.65 146.98-19.3 147.06-17.8 147.13-16.3 147.01-14.85 146.88-13.4 146.68-12.35ZM148.48-9.2L148.48-9.2Q148.18-7.3 147.91-5.78 147.63-4.25 147.33-2.65L147.33-2.65Q148.48-3.85 149.36-4.83 150.23-5.8 150.91-6.8 151.58-7.8 152.16-8.9 152.73-10 153.28-11.45L153.28-11.45Q153.73-12.7 153.93-14.15 154.13-15.6 154.03-16.5L154.03-16.5Q154.03-16.8 153.86-16.95 153.68-17.1 153.23-16.9L153.23-16.9Q152.78-16.65 152.08-16.03 151.38-15.4 150.66-14.43 149.93-13.45 149.33-12.13 148.73-10.8 148.48-9.2ZM148.83-13.85L148.83-13.85Q149.03-14.5 149.68-15.5 150.33-16.5 151.18-17.35 152.03-18.2 152.98-18.68 153.93-19.15 154.78-18.7L154.78-18.7Q155.38-18.4 155.58-17.48 155.78-16.55 155.68-15.4 155.58-14.25 155.26-12.98 154.93-11.7 154.53-10.75L154.53-10.75Q153.38-7.9 151.66-5.65 149.93-3.4 147.03-1.45L147.03-1.45Q146.98-1.2 147.16-1.13 147.33-1.05 147.61-1.1 147.88-1.15 148.21-1.3 148.53-1.45 148.78-1.7L148.78-1.7Q149.33-2.15 150.01-2.75 150.68-3.35 151.33-3.9 151.98-4.45 152.43-4.78 152.88-5.1 152.98-5.05L152.98-5.05Q153.03-5 152.88-4.73 152.73-4.45 152.48-4.1 152.23-3.75 151.98-3.43 151.73-3.1 151.63-3L151.63-3Q150.98-2.3 150.46-1.78 149.93-1.25 149.18-0.75L149.18-0.75Q148.58-0.3 148.01-0.13 147.43 0.05 146.73-0.2L146.73-0.2Q146.18 2.3 145.41 5 144.63 7.7 144.08 9.8L144.08 9.8Q143.93 10.6 143.78 10.5L143.78 10.5Q143.68 10.4 143.66 10.15 143.63 9.9 143.63 9.6L143.63 9.6Q143.63 7.5 143.88 5.55 144.13 3.6 144.53 1.63 144.93-0.35 145.41-2.38 145.88-4.4 146.38-6.6L146.38-6.6Q146.93-9 147.41-11.28 147.88-13.55 148.23-16.35L148.23-16.35Q148.38-17.55 148.98-18.55 149.58-19.55 150.43-20.23 151.28-20.9 152.31-21.25 153.33-21.6 154.33-21.6L154.33-21.6Q155.98-21.55 157.21-20.38 158.43-19.2 158.43-16.6L158.43-16.6Q158.43-14.7 157.86-13.05 157.28-11.4 156.58-10.05L156.58-10.05Q156.48-9.9 156.16-9.5 155.83-9.1 155.73-9.2L155.73-9.2Q155.68-9.25 155.81-9.65 155.93-10.05 156.03-10.3L156.03-10.3Q156.33-11.1 156.58-12.45 156.83-13.8 156.86-15.2 156.88-16.6 156.51-17.8 156.13-19 155.13-19.5L155.13-19.5Q153.93-20.1 152.81-19.68 151.68-19.25 150.81-18.3 149.93-17.35 149.38-16.13 148.83-14.9 148.83-13.85ZM144.43-24.25L144.43-24.25Q145.18-21.6 145.01-18.68 144.83-15.75 144.18-12.68 143.53-9.6 142.68-6.45 141.83-3.3 141.23-0.15L141.23-0.15Q140.93 1.55 140.76 3.53 140.58 5.5 140.68 7.55 140.78 9.6 141.21 11.58 141.63 13.55 142.53 15.25L142.53 15.25Q142.73 15.65 142.61 15.65 142.48 15.65 142.23 15.35L142.23 15.35Q141.03 13.65 140.41 11.58 139.78 9.5 139.56 7.33 139.33 5.15 139.43 2.95 139.53 0.75 139.83-1.25L139.83-1.25Q140.33-4.4 141.11-7.45 141.88-10.5 142.58-13.4 143.28-16.3 143.76-19.03 144.23-21.75 144.08-24.25L144.08-24.25Q144.08-24.6 144.18-24.6L144.18-24.6Q144.23-24.65 144.33-24.5 144.43-24.35 144.43-24.25ZM144.23 15.65L144.23 15.65Q144.08 15.7 143.88 15.5L143.88 15.5 143.68 15.3Q143.13 14.65 142.68 13.95 142.23 13.25 141.93 11.6L141.93 11.6Q141.83 10.95 141.78 10 141.73 9.05 141.73 8.15 141.73 7.25 141.83 6.6 141.93 5.95 142.13 6L142.13 6Q142.33 6 142.48 6.7 142.63 7.4 142.68 8.1L142.68 8.1Q142.78 9.05 142.81 9.83 142.83 10.6 142.98 11.4L142.98 11.4Q143.18 12.4 143.48 13.35 143.78 14.3 144.18 15.15L144.18 15.15Q144.23 15.25 144.26 15.45 144.28 15.65 144.23 15.65Z" fill="#ffffff" data-fill-palette-color="primary"></path></g></svg></g></svg></g><g transform="matrix(1,0,0,1,0,164.48045287991803)"><svg viewBox="0 0 232.209792 22.195747073281748" height="22.195747073281748" width="232.209792"><g transform="matrix(1,0,0,1,0,0)"><svg width="232.209792" viewBox="-0.24 -31.74 429.05 41.019999999999996" height="22.195747073281748" data-palette-color="#ffc880"><path d="M7.71 0L19.68 0Q19.68-1.07 18.9-1.22L18.9-1.22Q18.65-1.27 18.41-1.27L18.41-1.27 15.77-1.27 15.77-12.16 23.14-26.66Q24.27-27.98 25.78-28.03L25.78-28.03Q26.86-28.03 27-28.81L27-28.81Q27.05-29.05 27.05-29.3L27.05-29.3 18.36-29.3 18.36-28.03 22.27-28.03 14.84-13.82 7.08-28.03 10.79-28.03 10.79-29.3-0.24-29.3-0.24-28.03 2.44-28.03 11.62-11.67 11.62-1.27 7.71-1.27 7.71 0ZM33.15-10.4L33.15-10.4Q33.15-17.97 37.3-19.63L37.3-19.63Q38.38-20.02 39.55-20.02L39.55-20.02Q44.97-20.02 45.85-13.18L45.85-13.18Q45.99-12.01 45.99-10.6L45.99-10.6Q45.99-2.39 41.5-0.98L41.5-0.98Q40.62-0.73 39.69-0.73L39.69-0.73Q34.76-0.73 33.49-6.59L33.49-6.59Q33.15-8.3 33.15-10.4ZM39.69-21.24L39.69-21.24Q35.01-21.24 31.88-18.02L31.88-18.02Q29-15.04 29-10.6L29-10.6Q29-4.44 33.49-1.37L33.49-1.37Q36.23 0.49 39.55 0.49L39.55 0.49Q44.24 0.49 47.31-2.83L47.31-2.83Q50.14-5.86 50.14-10.4L50.14-10.4Q50.14-16.55 45.6-19.53L45.6-19.53Q42.92-21.24 39.69-21.24ZM77.24-1.22L77.24-1.22 74.8-1.22 74.8-20.75 67.13-20.75 67.13-19.53 71.14-19.53 71.14-8.98Q71.14-4.59 68.06-2.54L68.06-2.54Q66.69-1.61 65.23-1.61L65.23-1.61Q61.23-1.61 60.59-5.71L60.59-5.71Q60.49-6.4 60.49-7.18L60.49-7.18 60.49-20.75 53.07-20.75 53.07-19.53 56.83-19.53 56.83-7.91Q56.88 0.44 63.81 0.49L63.81 0.49Q67.48 0.49 69.82-2.49L69.82-2.49Q70.7-3.61 71.24-4.98L71.24-4.98 71.58 0 78.46 0Q78.46-1.07 77.73-1.17L77.73-1.17Q77.53-1.22 77.24-1.22ZM92.18-1.22L92.18-1.22 88.66-1.22 88.66-10.94Q88.66-15.38 91.4-18.07L91.4-18.07Q92.47-19.09 93.21-19.14L93.21-19.14Q94.04-19.14 94.72-17.92L94.72-17.92Q95.5-16.55 96.18-16.36L96.18-16.36Q96.48-16.26 96.77-16.26L96.77-16.26Q98.23-16.26 98.63-17.68L98.63-17.68Q98.72-17.97 98.72-18.26L98.72-18.26Q98.72-20.46 96.48-20.95L96.48-20.95Q95.99-21.04 95.55-21.04L95.55-21.04Q92.62-21.04 90.32-18.55L90.32-18.55Q89.25-17.38 88.62-15.92L88.62-15.92 88.42-20.75 81.34-20.75 81.34-19.53 85-19.53 85-4.15Q85-1.9 83.73-1.46L83.73-1.46Q83-1.22 81.34-1.22L81.34-1.22 81.34 0 93.4 0Q93.4-1.07 92.67-1.17L92.67-1.17Q92.47-1.22 92.18-1.22ZM135.24-2.25L135.24-2.25Q135.24-0.2 135.83 0.1L135.83 0.1Q136.17 0.24 136.76 0.24L136.76 0.24 136.76-8.98 135.58-8.98Q133.09-0.93 125.62-0.88L125.62-0.88Q119.27-0.88 116.98-7.28L116.98-7.28Q115.86-10.4 115.86-14.65L115.86-14.65Q115.86-23.78 120.89-27.05L120.89-27.05Q123.08-28.42 125.77-28.42L125.77-28.42Q131.87-28.42 134.61-22.66L134.61-22.66Q135.09-21.63 135.44-20.56L135.44-20.56 136.61-20.56 136.46-29.54Q135.39-29.54 135.14-28.86L135.14-28.86Q135-28.27 135-26.95L135-26.95Q133.58-28.37 130.16-29.25L130.16-29.25Q127.92-29.79 125.57-29.79L125.57-29.79Q117.86-29.79 113.76-24.07L113.76-24.07Q110.93-20.02 110.93-14.75L110.93-14.75Q110.93-8.35 114.88-4L114.88-4Q119.08 0.49 125.82 0.49L125.82 0.49Q130.75 0.44 135.24-2.25ZM150.28-1.22L150.28-1.22 147.84-1.22 147.84-11.77Q147.84-16.21 150.91-18.21L150.91-18.21Q152.18-19.04 153.55-19.04L153.55-19.04Q156.53-19.04 157.7-16.26L157.7-16.26Q158.24-14.94 158.24-13.33L158.24-13.33 158.24-4.15Q158.24-1.9 157.16-1.46L157.16-1.46Q156.48-1.22 154.82-1.22L154.82-1.22 154.82 0 165.56 0Q165.56-1.07 164.83-1.17L164.83-1.17Q164.63-1.22 164.34-1.22L164.34-1.22 161.9-1.22 161.9-13.33Q161.9-18.65 158.38-20.56L158.38-20.56Q157.02-21.24 155.45-21.24L155.45-21.24Q151.84-21.24 149.4-18.6L149.4-18.6Q148.37-17.48 147.84-16.06L147.84-16.06 147.84-31.74 140.51-31.74 140.51-30.52 144.17-30.52 144.17-4.15Q144.17-1.9 142.9-1.46L142.9-1.46Q142.17-1.22 140.51-1.22L140.51-1.22 140.51 0 151.5 0Q151.5-1.07 150.77-1.17L150.77-1.17Q150.57-1.22 150.28-1.22ZM185.92 0.49L185.92 0.49Q189.68 0.49 190.07-4.05L190.07-4.05Q190.12-4.35 190.12-4.59L190.12-4.59 188.85-4.64Q188.51-1.07 186.95-1.03L186.95-1.03Q185.68-1.12 185.63-3.56L185.63-3.56 185.63-13.87Q185.63-20.85 178.64-21.24L178.64-21.24Q178.21-21.24 177.77-21.24L177.77-21.24Q172.3-21.24 170.44-18.7L170.44-18.7Q169.86-17.87 169.86-17.04L169.86-17.04Q169.86-15.53 171.27-15.28L171.27-15.28Q171.52-15.23 171.76-15.23L171.76-15.23Q172.88-15.23 173.42-16.65L173.42-16.65Q174.1-18.46 174.35-18.8L174.35-18.8Q175.28-20.02 177.23-20.02L177.23-20.02Q181.82-19.73 181.96-14.99L181.96-14.99 181.96-11.91Q170.49-11.91 168.83-7.13L168.83-7.13Q168.54-6.2 168.54-5.13L168.54-5.13Q168.54-1.42 171.81-0.05L171.81-0.05Q173.13 0.49 174.59 0.49L174.59 0.49Q178.16 0.49 180.6-1.95L180.6-1.95Q181.48-2.88 181.92-3.91L181.92-3.91Q182.5 0.44 185.92 0.49ZM176.2-1.46L176.2-1.46Q173.22-1.46 172.54-4.44L172.54-4.44Q172.39-5.13 172.39-5.96L172.39-5.96Q172.39-9.23 176.15-10.11L176.15-10.11Q178.16-10.55 181.96-10.6L181.96-10.6 181.96-6.69Q181.23-3.32 178.4-1.95L178.4-1.95Q177.28-1.46 176.2-1.46ZM191.34-20.75L191.34-19.53 194.76-19.53 194.76-5.76Q195.1 0.34 200.37 0.54L200.37 0.54Q204.86 0.54 205.99-4.98L205.99-4.98Q205.99-5.03 205.99-5.08L205.99-5.08 204.67-5.32Q203.45-1.27 201.1-0.93L201.1-0.93Q198.47-1.03 198.42-4.69L198.42-4.69 198.42-19.53 205.99-19.53 205.99-20.75 198.42-20.75 198.42-26.42 194.76-25.39 194.76-20.75 191.34-20.75ZM213.7-1.81L213.7-1.81Q213.7-4.44 211.75-4.93L211.75-4.93Q211.35-5.03 211.01-5.03L211.01-5.03Q209.45-5.03 208.86-3.56L208.86-3.56Q208.67-3.08 208.67-2.59L208.67-2.59Q208.67-1.03 210.23-0.44L210.23-0.44Q210.48-0.39 210.62-0.34L210.62-0.34Q211.7-0.05 211.75 0.49L211.75 0.49Q211.7 1.81 209.6 4L209.6 4 210.62 4.74Q213.6 1.51 213.7-1.81ZM232.88 0L244.85 0Q244.85-1.07 244.06-1.22L244.06-1.22Q243.82-1.27 243.58-1.27L243.58-1.27 240.94-1.27 240.94-12.16 248.31-26.66Q249.44-27.98 250.95-28.03L250.95-28.03Q252.02-28.03 252.17-28.81L252.17-28.81Q252.22-29.05 252.22-29.3L252.22-29.3 243.53-29.3 243.53-28.03 247.43-28.03 240.01-13.82 232.25-28.03 235.96-28.03 235.96-29.3 224.92-29.3 224.92-28.03 227.61-28.03 236.79-11.67 236.79-1.27 232.88-1.27 232.88 0ZM258.32-10.4L258.32-10.4Q258.32-17.97 262.47-19.63L262.47-19.63Q263.54-20.02 264.72-20.02L264.72-20.02Q270.14-20.02 271.01-13.18L271.01-13.18Q271.16-12.01 271.16-10.6L271.16-10.6Q271.16-2.39 266.67-0.98L266.67-0.98Q265.79-0.73 264.86-0.73L264.86-0.73Q259.93-0.73 258.66-6.59L258.66-6.59Q258.32-8.3 258.32-10.4ZM264.86-21.24L264.86-21.24Q260.18-21.24 257.05-18.02L257.05-18.02Q254.17-15.04 254.17-10.6L254.17-10.6Q254.17-4.44 258.66-1.37L258.66-1.37Q261.4 0.49 264.72 0.49L264.72 0.49Q269.4 0.49 272.48-2.83L272.48-2.83Q275.31-5.86 275.31-10.4L275.31-10.4Q275.31-16.55 270.77-19.53L270.77-19.53Q268.09-21.24 264.86-21.24ZM302.41-1.22L302.41-1.22 299.97-1.22 299.97-20.75 292.3-20.75 292.3-19.53 296.31-19.53 296.31-8.98Q296.31-4.59 293.23-2.54L293.23-2.54Q291.86-1.61 290.4-1.61L290.4-1.61Q286.39-1.61 285.76-5.71L285.76-5.71Q285.66-6.4 285.66-7.18L285.66-7.18 285.66-20.75 278.24-20.75 278.24-19.53 282-19.53 282-7.91Q282.05 0.44 288.98 0.49L288.98 0.49Q292.64 0.49 294.99-2.49L294.99-2.49Q295.87-3.61 296.4-4.98L296.4-4.98 296.74 0 303.63 0Q303.63-1.07 302.9-1.17L302.9-1.17Q302.7-1.22 302.41-1.22ZM317.35-1.22L317.35-1.22 313.83-1.22 313.83-10.94Q313.83-15.38 316.57-18.07L316.57-18.07Q317.64-19.09 318.37-19.14L318.37-19.14Q319.2-19.14 319.89-17.92L319.89-17.92Q320.67-16.55 321.35-16.36L321.35-16.36Q321.64-16.26 321.94-16.26L321.94-16.26Q323.4-16.26 323.79-17.68L323.79-17.68Q323.89-17.97 323.89-18.26L323.89-18.26Q323.89-20.46 321.64-20.95L321.64-20.95Q321.16-21.04 320.72-21.04L320.72-21.04Q317.79-21.04 315.49-18.55L315.49-18.55Q314.42-17.38 313.78-15.92L313.78-15.92 313.59-20.75 306.51-20.75 306.51-19.53 310.17-19.53 310.17-4.15Q310.17-1.9 308.9-1.46L308.9-1.46Q308.17-1.22 306.51-1.22L306.51-1.22 306.51 0 318.57 0Q318.57-1.07 317.84-1.17L317.84-1.17Q317.64-1.22 317.35-1.22ZM361.73 0L362.12 0 371.79-28.03 374.23-28.03 374.23-29.3 366.32-29.3 366.32-28.03 370.22-28.03 362.56-4.98 354.7-28.03 358.65-28.03 358.65-29.3 350.25-29.3 353.57-19.92 348.45-5.08 340.19-28.03 344.15-28.03 344.15-29.3 333.41-29.3 333.41-28.03 336.29-28.03 345.27-2.93Q346.25-0.15 347.03 0.15L347.03 0.15Q347.32 0.24 347.62 0.24L347.62 0.24 348.01 0.24 354.35-17.68 359.58-2.93Q360.46-0.44 361-0.15L361-0.15Q361.29 0 361.73 0L361.73 0ZM393.32 0.49L393.32 0.49Q397.08 0.49 397.47-4.05L397.47-4.05Q397.52-4.35 397.52-4.59L397.52-4.59 396.25-4.64Q395.9-1.07 394.34-1.03L394.34-1.03Q393.07-1.12 393.02-3.56L393.02-3.56 393.02-13.87Q393.02-20.85 386.04-21.24L386.04-21.24Q385.6-21.24 385.16-21.24L385.16-21.24Q379.69-21.24 377.84-18.7L377.84-18.7Q377.25-17.87 377.25-17.04L377.25-17.04Q377.25-15.53 378.67-15.28L378.67-15.28Q378.91-15.23 379.16-15.23L379.16-15.23Q380.28-15.23 380.82-16.65L380.82-16.65Q381.5-18.46 381.74-18.8L381.74-18.8Q382.67-20.02 384.63-20.02L384.63-20.02Q389.22-19.73 389.36-14.99L389.36-14.99 389.36-11.91Q377.89-11.91 376.23-7.13L376.23-7.13Q375.93-6.2 375.93-5.13L375.93-5.13Q375.93-1.42 379.21-0.05L379.21-0.05Q380.52 0.49 381.99 0.49L381.99 0.49Q385.55 0.49 387.99-1.95L387.99-1.95Q388.87-2.88 389.31-3.91L389.31-3.91Q389.9 0.44 393.32 0.49ZM383.6-1.46L383.6-1.46Q380.62-1.46 379.94-4.44L379.94-4.44Q379.79-5.13 379.79-5.96L379.79-5.96Q379.79-9.23 383.55-10.11L383.55-10.11Q385.55-10.55 389.36-10.6L389.36-10.6 389.36-6.69Q388.63-3.32 385.8-1.95L385.8-1.95Q384.67-1.46 383.6-1.46ZM402.79 7.76L402.79 7.76Q402.01 7.76 401.62 6.59L401.62 6.59Q401.08 5.13 400.59 4.79L400.59 4.79Q400.15 4.49 399.56 4.49L399.56 4.49Q398 4.49 397.76 5.86L397.76 5.86Q397.71 6.05 397.71 6.2L397.71 6.2Q397.71 8.06 399.86 8.89L399.86 8.89Q400.83 9.28 401.91 9.28L401.91 9.28Q405.77 9.28 408.6 4.54L408.6 4.54Q409.77 2.64 410.84 0L410.84 0 418.07-17.82Q418.56-19.19 419.14-19.38L419.14-19.38Q419.49-19.48 419.93-19.48L419.93-19.48Q420.9-19.48 421.05-20.02L421.05-20.02Q421.15-20.31 421.15-20.75L421.15-20.75 413.72-20.75 413.72-19.48 417.29-19.48 411.04-3.86 404.35-19.48 407.62-19.48 407.62-20.75 398.1-20.75 398.1-19.48 400.49-19.48 409.28 0Q406.55 6.45 404.15 7.47L404.15 7.47Q403.47 7.76 402.79 7.76ZM428.81-2.25L428.81-2.25Q428.81-3.86 427.35-4.54L427.35-4.54Q426.86-4.79 426.32-4.79L426.32-4.79Q424.71-4.79 424.07-3.32L424.07-3.32Q423.83-2.78 423.83-2.25L423.83-2.25Q423.83-0.68 425.25 0L425.25 0Q425.78 0.24 426.32 0.24L426.32 0.24Q427.88 0.24 428.57-1.17L428.57-1.17Q428.81-1.71 428.81-2.25Z" opacity="1" transform="matrix(1,0,0,1,0,0)" fill="#ffffff" class="slogan-text-1" data-fill-palette-color="secondary" id="text-1"></path></svg></g></svg></g></svg></g></svg></g></svg></g><defs></defs></svg><rect width="395.52" height="186.67619995319978" fill="none" stroke="none" visibility="hidden"></rect></g></svg></g></svg>